<svg xmlns="http://www.w3.org/2000/svg" viewBox="0 0 64 64" role="img" aria-label="AME Mentor GA aircraft">
  <defs>
    <linearGradient id="grad" x1="0%" y1="0%" x2="100%" y2="100%">
      <stop offset="0%" stop-color="#0f4d8a" />
      <stop offset="100%" stop-color="#3ac6b0" />
    </linearGradient>
  </defs>
  <rect width="64" height="64" rx="18" fill="url(#grad)" />
  <path
    d="M30.8 13.5h2.4l3 8.2 11.8 2.1c1.3.2 2.3 1.3 2.3 2.6 0 1.5-1.2 2.7-2.7 2.7h-8.4l2.6 6.2 5.5 1.6c1.1.3 1.8 1.4 1.6 2.5-.2 1.1-1.1 1.9-2.2 1.9h-3.6l2 5.2c.5 1.4-.2 3-1.5 3.6-.4.2-.8.3-1.2.3-.9 0-1.9-.4-2.4-1.3l-5.3-8.5h-4.6l-5.3 8.5c-.5.8-1.4 1.3-2.4 1.3-.4 0-.8-.1-1.2-.3-1.4-.6-2-2.2-1.5-3.6l2-5.2h-3.6c-1.1 0-2-.8-2.2-1.9-.2-1.1.5-2.3 1.6-2.5l5.5-1.6 2.6-6.2h-8.4c-1.5 0-2.7-1.2-2.7-2.7 0-1.3 1-2.4 2.3-2.6l11.8-2.1 3-8.2z"
    fill="#f7fbff"
  />
  <circle cx="32" cy="32" r="3.3" fill="#0f4d8a" opacity="0.25" />
</svg>
